<?xml version="1.0" standalone="no"?>
<!DOCTYPE svg PUBLIC "-//W3C//DTD SVG 20010904//EN"
 "http://www.w3.org/TR/2001/REC-SVG-20010904/DTD/svg10.dtd">
<svg version="1.0" xmlns="http://www.w3.org/2000/svg"
 width="500.000000pt" height="500.000000pt" viewBox="0 0 500.000000 500.000000"
 preserveAspectRatio="xMidYMid meet">

<g transform="translate(0.000000,500.000000) scale(0.100000,-0.100000)"
fill="#000000" stroke="none">
<path d="M2245 4874 c-359 -66 -646 -266 -801 -558 -88 -166 -132 -328 -158
-577 -9 -92 -20 -151 -35 -183 -11 -27 -21 -57 -21 -67 0 -11 -16 -29 -37 -43
-130 -83 -139 -215 -23 -320 23 -21 59 -45 79 -53 20 -8 77 -55 127 -103 100
-97 173 -139 290 -166 37 -8 71 -17 74 -19 4 -2 4 -19 2 -37 -4 -26 -40 -68
-177 -208 -94 -96 -195 -209 -224 -250 -226 -321 -272 -687 -127 -1014 66
-148 206 -316 351 -419 39 -27 124 -76 190 -108 116 -56 119 -58 92 -68 -16
-6 -33 -11 -38 -11 -21 0 -237 -74 -281 -96 -84 -42 -108 -96 -66 -149 22 -28
95 -65 129 -65 16 0 19 -7 19 -40 0 -26 7 -47 20 -60 17 -17 31 -23 92 -35 9
-1 54 1 99 6 67 8 92 7 128 -6 65 -22 100 -19 170 16 69 34 178 130 212 186
12 20 27 60 33 89 l11 54 280 4 c154 2 294 7 310 10 51 11 1 -8 -155 -59 -229
-75 -321 -127 -341 -194 -16 -54 5 -91 73 -125 28 -14 61 -26 71 -26 11 0 43
-25 72 -55 53 -55 54 -55 113 -55 33 0 76 7 97 15 28 12 56 14 118 10 79 -6
84 -6 129 23 128 83 214 265 206 440 l-3 84 105 32 c404 123 722 388 889 739
90 189 122 337 128 588 8 306 -30 534 -118 719 -51 107 -98 164 -160 195 -85
44 -148 28 -254 -64 -33 -28 -89 -66 -124 -84 -91 -45 -208 -49 -415 -13 -82
14 -150 27 -153 29 -2 3 33 47 78 98 105 121 151 190 206 305 86 181 119 392
102 642 -33 473 -276 831 -664 978 -161 61 -246 76 -450 80 -139 2 -211 -1
-270 -12z m535 -127 c52 -14 124 -37 160 -51 257 -105 456 -330 539 -612 50
-169 65 -412 36 -580 -42 -239 -106 -363 -294 -569 -67 -73 -115 -137 -143
-190 -75 -140 -355 -412 -757 -733 -91 -73 -167 -132 -171 -132 -12 0 -111
170 -164 280 -105 220 -150 400 -128 509 7 31 12 68 12 82 0 24 3 25 113 37
121 13 224 38 321 79 170 71 331 196 380 296 62 123 14 250 -112 297 -69 26
-102 48 -177 121 -76 72 -135 104 -227 119 -133 23 -237 -2 -353 -85 -36 -26
-96 -61 -133 -77 -61 -28 -80 -32 -200 -37 -115 -5 -131 -4 -126 9 18 48 35
138 44 235 32 343 126 563 317 746 129 122 255 194 430 244 132 38 192 44 373
40 136 -2 182 -8 260 -28z m-564 -1176 c26 -12 80 -53 121 -92 67 -64 173
-129 210 -129 6 0 21 -12 32 -26 108 -137 -231 -386 -577 -425 -186 -21 -396
21 -487 96 -11 9 -15 14 -8 11 6 -4 58 -13 115 -21 261 -37 547 -1 731 91 84
43 197 126 203 150 3 12 1 32 -6 43 -17 32 -61 27 -114 -14 -155 -118 -296
-163 -542 -172 -429 -17 -774 109 -678 246 30 42 78 54 249 61 203 9 218 14
431 149 29 18 69 39 90 47 53 20 168 12 230 -15z m1923 -756 c29 -15 86 -85
114 -140 82 -163 133 -521 109 -767 -29 -305 -141 -557 -338 -767 -262 -279
-641 -428 -1169 -460 -262 -16 -563 10 -787 69 -513 134 -818 476 -818 916 0
289 104 507 368 770 112 111 114 111 127 39 21 -122 144 -419 228 -552 15 -24
27 -46 27 -49 0 -4 -36 -4 -80 0 -88 7 -129 -5 -150 -45 -12 -21 -50 -427 -50
-527 0 -46 4 -58 28 -82 35 -35 35 -35 365 -55 361 -22 338 -40 361 270 26
328 25 333 -11 365 -25 22 -44 29 -101 35 l-70 7 86 65 c169 128 507 427 622
550 40 43 98 111 128 151 38 50 60 71 71 68 105 -31 408 -70 480 -61 131 15
201 46 323 144 62 49 85 65 106 70 2 1 16 -6 31 -14z m-2034 -1065 c127 -11
243 -20 259 -20 l28 0 -7 -67 c-3 -38 -12 -141 -19 -230 -7 -90 -15 -166 -19
-169 -3 -4 -118 1 -254 10 -136 9 -253 16 -259 16 -7 0 -10 17 -7 48 1 26 10
130 18 230 8 101 15 188 15 193 0 11 -27 12 245 -11z m36 -1136 c109 -26 109
-26 109 -56 0 -17 -7 -45 -16 -64 -20 -42 -105 -120 -161 -147 -38 -19 -46
-19 -97 -7 -38 9 -83 11 -148 6 l-94 -7 4 35 c6 49 -30 83 -97 92 -52 7 -65
17 -33 27 9 3 107 37 217 76 110 38 201 70 203 70 2 1 53 -11 113 -25z m1085
-19 c3 -14 4 -58 2 -98 -5 -91 -41 -174 -106 -240 l-47 -48 -75 7 c-65 5 -84
3 -140 -18 l-64 -25 -51 52 c-39 41 -62 55 -103 65 -28 8 -52 17 -52 20 0 13
155 78 285 120 72 24 147 50 168 58 42 17 77 58 77 91 0 13 8 22 23 25 49 11
62 14 69 15 4 0 10 -10 14 -24z"/>
<path d="M1668 3927 c-34 -28 -48 -65 -48 -129 0 -181 171 -199 187 -19 7 70
-9 123 -44 151 -33 26 -61 25 -95 -3z"/>
<path d="M2665 3847 c-60 -60 -60 -174 1 -235 29 -29 39 -34 67 -28 103 20
131 204 42 274 -39 31 -71 28 -110 -11z"/>
<path d="M2112 3437 c-18 -18 -32 -40 -32 -48 0 -22 32 -49 57 -49 34 0 88 43
91 73 8 65 -63 79 -116 24z"/>
<path d="M3948 2329 c-106 -63 -163 -78 -355 -94 -178 -15 -219 -25 -228 -56
-7 -21 8 -54 28 -62 16 -6 249 9 367 23 67 9 105 20 177 55 51 25 97 45 102
45 36 0 44 -136 12 -219 -38 -100 -123 -177 -231 -208 -61 -17 -90 -37 -90
-63 0 -52 108 -58 203 -12 68 34 70 28 27 -64 -57 -118 -174 -223 -305 -274
-52 -20 -78 -24 -190 -24 -111 -1 -140 2 -200 22 -143 48 -236 132 -282 256
-9 22 -19 90 -22 150 -7 119 -15 135 -63 123 -34 -9 -48 -51 -48 -146 1 -283
202 -483 525 -523 163 -20 321 15 455 100 162 103 291 315 277 456 -4 45 0 61
37 135 40 82 41 87 41 185 0 113 -17 161 -75 210 -45 37 -82 34 -162 -15z"/>
<path d="M1943 1532 c-17 -17 -17 -37 1 -55 11 -10 53 -17 143 -23 70 -4 133
-8 138 -9 6 -1 18 3 28 7 20 10 23 60 5 76 -7 5 -78 12 -157 14 -111 3 -147 0
-158 -10z"/>
</g>
</svg>
